<svg xmlns="http://www.w3.org/2000/svg" width="721.3" height="463.7" viewBox="0 0 721.3 463.7"><g id="Layer_2" data-name="Layer 2"><g id="Layer_7" data-name="Layer 7"><path d="M84.3,228.4l-5.9-.2-6.5-.8a70.6,70.6,0,0,1-23.3-8.2,81.9,81.9,0,0,1-20.3-16,84.7,84.7,0,0,1-14.5-21.5,4.3,4.3,0,0,1-.7-2,1.5,1.5,0,0,1,1.7-1.7,2.3,2.3,0,0,1,2.2,1.5,62.2,62.2,0,0,0,4.8,6.9,73.8,73.8,0,0,0,6.8,7.1c12.7,11.3,26.5,17,41.4,17,10.5,0,18.4-1.4,23.7-4.3s8-6.7,8-11.7-3-11.2-8.9-18.2l-5.1-5.5c-1.8-2-3.6-4.1-5.3-6.3L70.5,149.7a262.4,262.4,0,0,1-17.2-23.4c-4.5-7-6.8-14.2-6.8-21.4a34.5,34.5,0,0,1,2.2-11.8,59.4,59.4,0,0,1,6.8-13.2,226.6,226.6,0,0,1-28-5.7c-7.3-2-12.4-4-15.1-6.1a17.1,17.1,0,0,1-4.6-3.8,5.1,5.1,0,0,1-1.5-2.8c0-1.1.8-1.7,2.4-1.7s4.1.8,6.8,2.4q6.6,4.6,18.3,7.2a203.1,203.1,0,0,0,26.3,3.7l5.1-5.8A73.8,73.8,0,0,1,84.4,51.7a124.3,124.3,0,0,1,23.9-10.4,164.8,164.8,0,0,1,24.8-5.9,142.5,142.5,0,0,1,22.2-2,52.3,52.3,0,0,1,14,2.1,35.5,35.5,0,0,1,12.8,6.2,12.7,12.7,0,0,1,5.4,10.6,11.6,11.6,0,0,1-1,5.1q-6,16.7-42.9,22.5a178,178,0,0,1-19,2.1q-10,.6-20.4.6c-5.2,0-10.4-.1-15.7-.4l-15.3-.8Q60.6,94,60.6,110.2t13.8,34.2c3.7,4.5,7.5,8.8,11.5,12.9l12,12.5a24,24,0,0,1,2.4,2.2l2.4,2.4a60.4,60.4,0,0,1,11.8,15.4,32.2,32.2,0,0,1,3.7,14.1c0,7.1-3,13-9,17.6S95,228.4,84.3,228.4Zm-2.7-154q16.5-.3,34.2-2.1a217.6,217.6,0,0,0,32.7-5.7c10-2.6,17.8-6,23.5-10.2,2.7-2.2,4.1-3.7,4.1-4.3s-2.8-2.3-8.5-2.9c-2.2-.4-4.6-.6-7-.8l-7-.2a107.6,107.6,0,0,0-50.4,12.6c-3.9,2.1-7.6,4.2-11.3,6.4A105.4,105.4,0,0,0,81.6,74.4Z" transform="translate(0 -23)" fill="#fff"/><path d="M165.4,316.3c-8.7,0-13-6.4-13-19.1a76,76,0,0,1,.7-10.2,112,112,0,0,1,2.4-12.1,224.2,224.2,0,0,1,10.3-31c4.6-11.3,9.6-22.6,15.1-33.9,2.3-4.9,4.9-10.1,7.8-15.9s5.7-11.4,8.5-17.1,6.7-13.3,9.4-19.1c-4.7,6-9.5,11.8-14.5,17.5a99.5,99.5,0,0,1-15.4,14.1q-7.9,5.7-15.6,5.7c-5.7-.1-9.6-1.6-11.9-4.5a15.6,15.6,0,0,1-3.4-10.3,41.8,41.8,0,0,1,3.2-15,96.4,96.4,0,0,1,6.7-14,134.1,134.1,0,0,1,15.4-19.5A95.3,95.3,0,0,1,190.5,116c6.9-4.2,13.5-6.3,20-6.3a29.7,29.7,0,0,1,18.4,5.8c3.5-5.6,6.6-9.4,9.2-11.2a13.6,13.6,0,0,1,8.2-2.8l4,.2a43,43,0,0,1,4.5.8l.7,1.9c-4,5.2-7.6,10.1-10.6,14.8s-6.6,10.3-10.7,16.9a42.3,42.3,0,0,1-2.3,3.7,31.8,31.8,0,0,0-2.5,4.1c-.7,1.1-2.1,4-4.4,8.6s-4.5,9.4-6.8,14.4l-10.3,21.5c-3.8,8.1-7.4,16.3-11,24.5,3.6,3.7,6.1,8.9,7.5,15.5a51.4,51.4,0,0,1,1.4,8q.3,4,.3,8.7a108.9,108.9,0,0,1-.9,13.8,125.7,125.7,0,0,1-3,14.3c-1.1,3.9-2.3,7.6-3.7,11.3a107.6,107.6,0,0,1-4.7,10.3C186,309.1,176.6,316.3,165.4,316.3ZM163,187c2.4,0,6.1-2,11.2-6.1,21.6-17.4,38.3-36.9,50.1-58.3q-2.4-5.1-7.5-5.1c-3.9,0-8.5,1.8-13.7,5.4a90.2,90.2,0,0,0-14.9,13A138.7,138.7,0,0,0,173.4,154a94.2,94.2,0,0,0-10.1,18.7c-2,4.5-3,8.1-3,10.6S161.2,187,163,187Zm5.1,122.8c2.9,0,5.9-1.9,9-5.6,6.1-7.3,11.2-18.9,15.2-34.9,1-3.7,1.8-7.4,2.6-11a100.1,100.1,0,0,0,1.5-10.8,35.9,35.9,0,0,0,.5-6.4v-5.7c0-7.9-.8-13.5-2.4-16.7-4.8,10.8-9.4,21.7-13.8,32.6S172.8,272,170,280.7c-3.2,11-4.8,18.7-4.8,23.3S166.2,309.8,168.1,309.8Z" transform="translate(0 -23)" fill="#fff"/><path d="M281.9,207.8c-6.9,0-10.4-4.3-10.4-12.8q0-9,5.1-24c-3.1,4.4-6.5,8.7-10.3,13.1A81.6,81.6,0,0,1,255,195c-3.7,2.9-7.1,4.3-10.4,4.3-5,0-8.4-1.7-10.3-5.1a23.3,23.3,0,0,1-2.7-11.3,51.9,51.9,0,0,1,.6-8,46.5,46.5,0,0,1,1.5-6.8,233.4,233.4,0,0,1,11.7-26.2,246.9,246.9,0,0,1,15.5-26.2,182.9,182.9,0,0,1,16.9-22q6.3-6.3,9.9-6.3c1.7,0,2.5.9,2.5,2.7a14,14,0,0,1-1.7,5.4,46.3,46.3,0,0,1-5.1,7.7c-1.8,2.1-4.2,5.9-7.3,11.5s-6.3,11.8-9.8,18.8-6.8,13.8-9.9,20.8-5.8,13-7.9,18.1-3.9,10.5-3.9,14.1,1,4.6,2.9,4.6,7-3.1,12.1-9.2l5.7-7.3c2.5-3.2,5.2-6.8,8-10.6s5.6-7.7,8.1-11.5,4.6-7,6.1-9.6l5.6-9.9a9.5,9.5,0,0,1,4.9-4.5,17.7,17.7,0,0,1,7.7-1.8c2.2,0,3.4,1.1,3.4,3.4a17.5,17.5,0,0,1-1.1,5.8,60.2,60.2,0,0,1-3.1,6.3c-2.2,3.8-4.5,8.4-6.9,13.7a161.4,161.4,0,0,0-5.9,15.1,68,68,0,0,0-3.1,11.9c-.4,1.6-.6,3.1-.8,4.4s-.2,2.7-.2,4a22.1,22.1,0,0,0,.2,3.2c.3,1.4.8,2.2,1.5,2.2a3.1,3.1,0,0,0,1.9-.8,58,58,0,0,0,9.5-6.7A107.1,107.1,0,0,0,312,178c1.7-1.8,3.3-3.5,4.7-5.2l4-5a2.4,2.4,0,0,1,2.2-1.2c1.9,0,2.9,1.2,2.9,3.4a4,4,0,0,1-1.5,2.9c-1.6,2.1-3.3,4.2-5.2,6.3s-3.7,4.3-5.4,6.6c-3.6,4-7.4,8-11.4,12.1a37.2,37.2,0,0,1-10.2,7.2A23.6,23.6,0,0,1,281.9,207.8Z" transform="translate(0 -23)" fill="#fff"/><path d="M328.7,207.1c-4.6,0-8-1.5-10.3-4.5s-3.5-7.1-3.5-12.5a47.3,47.3,0,0,1,.7-8,72.4,72.4,0,0,1,3.7-12.2,152.2,152.2,0,0,1,6.5-14.4c2.4-4.9,4.6-9,6.5-12.4l6.4-10.7c2.5-4.2,4.6-7.7,6.2-10.6a19.9,19.9,0,0,1,2.7-3.8c1.1-2.3,3.2-4.1,6.3-5.5a20.3,20.3,0,0,1,8.4-2.1c3.4,0,5.1,1.1,5.1,3.2a7.2,7.2,0,0,1-1.4,3.6l-10.8,17.3c-4.1,6.6-8.1,13.3-12,20.3a168.1,168.1,0,0,0-9.6,19.7c-2.5,6.2-3.7,11.5-3.7,15.9s1.7,6.8,5.1,6.8,5-1.3,8.2-3.7a88.3,88.3,0,0,0,9.5-8.2c3-3.1,5.4-5.5,7-7.3l4.8-5.1a17.1,17.1,0,0,0,2.2-2.5l1.9-2.6a2.3,2.3,0,0,1,2-1.2c1.9,0,2.9,1.2,2.9,3.4a3.8,3.8,0,0,1-1.2,2.9l-5.4,6.6c-1.7,2.1-3.6,4.2-5.5,6.3s-5.8,6.5-9.2,9.8a55.6,55.6,0,0,1-10.9,8.2A25.2,25.2,0,0,1,328.7,207.1Zm39.2-105.9a7.2,7.2,0,0,1-5.3-2,6.7,6.7,0,0,1-2.2-5.2,9.9,9.9,0,0,1,2.9-7.1,9.4,9.4,0,0,1,6.8-2.9,7,7,0,0,1,5.9,2.7,8.2,8.2,0,0,1,1.6,6.3,12.3,12.3,0,0,1-3.6,5.9A8.8,8.8,0,0,1,367.9,101.2Z" transform="translate(0 -23)" fill="#fff"/><path d="M338.6,321.2a20,20,0,0,1-14.2-5.4q-5.7-5.2-5.7-15c0-8.1,2.7-16.7,8.2-25.8s13-18.3,22.8-27.7a211.1,211.1,0,0,1,19.1-16.1c7.3-5.6,14.8-10.9,22.5-16s14.5-9.3,20.4-12.7c3.8-7.9,7.3-15.9,10.7-23.9s6.5-15.8,9.5-23.3l-10.5,16.8a134.5,134.5,0,0,1-12,16.3,61.8,61.8,0,0,1-13.3,12.1,24.9,24.9,0,0,1-14.1,4.6c-6.5,0-11-1.9-13.6-5.9s-3.9-8.8-3.9-14.6a70.4,70.4,0,0,1,2.9-19.1,150.5,150.5,0,0,1,6.3-17.5,136.6,136.6,0,0,1,11.9-20.2,119,119,0,0,1,15.5-18.2,87.2,87.2,0,0,1,17.2-13.1c5.8-3.3,11.4-4.9,16.7-4.9,9,0,16.1,3.1,21.2,9.4s7.6,15,7.6,26.2a16.6,16.6,0,0,1-1.4,7.3c-1,1.9-2.1,2.8-3.2,2.8s-2.4-2-2.4-6a36,36,0,0,0-1.3-12.5,28.9,28.9,0,0,0-5.6-10.9,12.1,12.1,0,0,0-9.3-4.7c-5.7-.3-11.7,1.8-18.2,6.4s-12.6,11.2-18.4,19.7q-2.7,3.9-5.1,7.8l-4.6,7.7c-5.8,10.9-9.8,20-11.9,27.4a52.7,52.7,0,0,0-2,7.8,39,39,0,0,0-.6,6.3c0,5.8,1.8,8.7,5.3,8.7s7.3-2.5,12.1-7.3c2.9-3.1,6.1-6.7,9.7-10.9s7.1-8.5,10.5-13,6.7-8.5,9.5-12.3l6.6-8.8c.4-.5.7-1.1,1.1-1.7a23.9,23.9,0,0,1,1.6-2.2,29.6,29.6,0,0,0,3.4-7.8,10.5,10.5,0,0,1,2.5-4.6,5,5,0,0,1,3.1-1.4c2.4,0,3.6,1.9,3.6,5.8s-1.5,8.6-3.5,15.7-4.4,14.8-7,23.2-5.3,16-7.9,23.1l2.9-1.5,2.7-1.2,6-2.4a3,3,0,0,1,1.5-.2,3.5,3.5,0,0,1,2.9,1.1,3.4,3.4,0,0,1,1,2.3,3.1,3.1,0,0,1-2.5,3.1l-7.6,3c-3.1,1.4-6.7,3.1-10.5,5.2-4.2,11.8-8.9,23.3-14,34.4a308.1,308.1,0,0,1-14.6,28.9q-24,40.8-44.3,51.5a31.2,31.2,0,0,1-7.9,3.2A34.4,34.4,0,0,1,338.6,321.2Zm-1.5-8a16.6,16.6,0,0,0,9.3-3.2,64.8,64.8,0,0,0,11.8-11.4,190.5,190.5,0,0,0,12.6-16.9c4.2-6.3,8.2-12.7,11.9-19s6.8-12.3,9.2-17.6l14.3-30.8-16.3,11.3c-5.6,4-11.2,8.1-16.7,12.5s-10.7,9.4-16.2,14.8a191.6,191.6,0,0,0-15.1,16.4,112.1,112.1,0,0,0-11.2,16.5c-2.8,5.3-4.2,10.2-4.2,14.8s1,7.1,3,9.3A9.9,9.9,0,0,0,337.1,313.2Z" transform="translate(0 -23)" fill="#fff"/><path d="M435.2,321.2a19.7,19.7,0,0,1-14.1-5.4q-5.7-5.2-5.7-15,0-12.2,8.1-25.8c5.4-9.1,13-18.3,22.9-27.7a196,196,0,0,1,19-16.1c7.3-5.6,14.8-10.9,22.5-16s14.5-9.3,20.5-12.7c3.7-7.9,7.2-15.9,10.6-23.9s6.6-15.8,9.5-23.3c-3.2,5.3-6.7,10.9-10.4,16.8a134.5,134.5,0,0,1-12,16.3,64.3,64.3,0,0,1-13.3,12.1,25.2,25.2,0,0,1-14.2,4.6c-6.5,0-11-1.9-13.6-5.9s-3.8-8.8-3.8-14.6a66.7,66.7,0,0,1,2.9-19.1,120.9,120.9,0,0,1,6.3-17.5,135.8,135.8,0,0,1,11.8-20.2,124.9,124.9,0,0,1,15.5-18.2,90.2,90.2,0,0,1,17.2-13.1c5.8-3.3,11.4-4.9,16.7-4.9,9.1,0,16.1,3.1,21.2,9.4s7.7,15,7.7,26.2a15.2,15.2,0,0,1-1.5,7.3c-1,1.9-2,2.8-3.1,2.8s-2.5-2-2.5-6a33.8,33.8,0,0,0-1.3-12.5,28.9,28.9,0,0,0-5.6-10.9,12.1,12.1,0,0,0-9.3-4.7c-5.6-.3-11.7,1.8-18.2,6.4s-12.6,11.2-18.4,19.7l-5.1,7.8-4.6,7.7c-5.8,10.9-9.7,20-11.8,27.4A43.4,43.4,0,0,0,477,180a39,39,0,0,0-.6,6.3c0,5.8,1.8,8.7,5.3,8.7s7.3-2.5,12.2-7.3c2.9-3.1,6.1-6.7,9.6-10.9s7.1-8.5,10.6-13,6.6-8.5,9.4-12.3,5.1-6.7,6.7-8.8l1.1-1.7a21.7,21.7,0,0,1,1.5-2.2,26.6,26.6,0,0,0,3.4-7.8,10.5,10.5,0,0,1,2.6-4.6,4.6,4.6,0,0,1,3-1.4c2.4,0,3.6,1.9,3.6,5.8s-1.5,8.6-3.5,15.7-4.3,14.8-7,23.2-5.3,16-7.9,23.1l2.9-1.5,2.7-1.2,6.1-2.4a2.8,2.8,0,0,1,1.4-.2,3.4,3.4,0,0,1,2.9,1.1,3,3,0,0,1,1,2.3,3,3,0,0,1-2.4,3.1l-7.7,3c-3.1,1.4-6.6,3.1-10.5,5.2-4.2,11.8-8.8,23.3-13.9,34.4s-10,20.8-14.7,28.9c-16,27.2-30.7,44.4-44.3,51.5a31.2,31.2,0,0,1-7.9,3.2A33.6,33.6,0,0,1,435.2,321.2Zm-1.4-8A16.3,16.3,0,0,0,443,310a65,65,0,0,0,11.9-11.4c4.2-5,8.3-10.6,12.6-16.9s8.1-12.7,11.8-19,6.8-12.3,9.2-17.6l14.3-30.8-16.2,11.3c-5.7,4-11.2,8.1-16.7,12.5s-10.8,9.4-16.3,14.8a209.4,209.4,0,0,0-15.1,16.4,103.8,103.8,0,0,0-11.1,16.5c-2.9,5.3-4.3,10.2-4.3,14.8s1,7.1,3.1,9.3A9.8,9.8,0,0,0,433.8,313.2Z" transform="translate(0 -23)" fill="#fff"/><path d="M557.5,249.7a10.8,10.8,0,0,1-9.3-4.7c-2.2-3.2-3.2-7.5-3.2-13a33.2,33.2,0,0,1,.2-4.3c.2-1.6.4-3.3.7-4.9a336.3,336.3,0,0,1,12.5-46.7,353.5,353.5,0,0,1,20.9-48.7,77.3,77.3,0,0,1-12.4,3.1,57.5,57.5,0,0,1-10.3,1c-3.6,0-6.2-.4-7.8-1.3s-2.4-1.8-2.4-2.6,1.6-2.4,4.8-2.4h2.5l2.2.2q10.8,0,27.6-6.6a380.5,380.5,0,0,1,30-46.6,273.8,273.8,0,0,1,33.2-36.9A56.9,56.9,0,0,1,660.4,26a29.4,29.4,0,0,1,12-3,14.4,14.4,0,0,1,10.5,4.2q4.2,4.4,4.2,13.2a28.3,28.3,0,0,1-2.2,10.5c-4.2,10.5-12.4,20.9-24.7,31.2-3,2.6-6.2,5.1-9.4,7.5s-6.5,4.8-9.7,7c-6.8,4.6-13.8,8.8-21.2,12.9a213.2,213.2,0,0,1-21.7,10.4,341.8,341.8,0,0,0-26.1,55.7c-7,19.9-10.6,36.8-10.9,50.9,0,6.4,1.4,9.6,4.3,9.6a7.7,7.7,0,0,0,3.2-.7l4.1-1.7a95.3,95.3,0,0,0,12.6-8.9,134.9,134.9,0,0,0,10.7-10.7l4.9-5.8,6.7-8.2,9.1-11.2c3.1-3.9,6.1-7.4,8.8-10.6s6.5-7.6,9.7-11.2a2.8,2.8,0,0,1,2.2-1.2c1.9,0,2.9,1.1,2.9,3.2a4.3,4.3,0,0,1-1.5,3.1c-1.8,2.3-3.6,4.6-5.7,7s-3.9,4.7-5.7,6.8l-5.6,6.7c-2.9,3.3-6.1,7.2-9.9,11.7s-6.9,8.3-10.5,12.7-7,8.5-10,12-5.6,6.3-7.6,8.3Q570.9,249.7,557.5,249.7ZM667,34.1q-15,12-31.3,31.5a370.5,370.5,0,0,0-31.2,43.9,250.3,250.3,0,0,0,23.2-13.7A251.4,251.4,0,0,0,649.8,79a139.3,139.3,0,0,0,17.9-18.3,59,59,0,0,0,10.5-18.1,18.6,18.6,0,0,0,.9-5.5c0-4.1-1.6-6.1-4.8-6.1S669.6,32.1,667,34.1Z" transform="translate(0 -23)" fill="#fff"/><path d="M610.6,283.4a9.9,9.9,0,0,1-8.1-3.8,15.3,15.3,0,0,1-3.1-9.8,35.9,35.9,0,0,1,6.5-20.3,80,80,0,0,1,16.6-18.1,163,163,0,0,1,21.6-15,195.9,195.9,0,0,1,22-11c2.1-4.4,4.5-9.7,7.2-16s5.6-13,8.6-20.1,5.8-14.1,8.4-21.1a167.5,167.5,0,0,0,6-18.9c-2.6,5-5.6,10.2-9.1,15.7a159.2,159.2,0,0,1-10.9,15.2,65.7,65.7,0,0,1-11.2,11.6c-3.7,3-7.3,4.5-10.7,4.5q-14.7,0-14.7-17.4a59.7,59.7,0,0,1,3.2-18.7,140.9,140.9,0,0,1,8.1-19.3c3.3-6.3,6.4-12,9.5-17l-2.9.4h-2.7a28.9,28.9,0,0,1-12.5-2.7,21.8,21.8,0,0,1-8.8-7.2c-1.5-2.8-2.2-4.6-2.2-5.4v-.2q0-1.5,1.2-1.5a4,4,0,0,1,2.9,1.5c5.4,6.1,12.7,9.2,22.1,9.2a50.1,50.1,0,0,0,7.7-.7l4.6-7.8a36.7,36.7,0,0,1,7.8-9.4q3.1-2.7,4.8-2.7a3.1,3.1,0,0,1,2.9,1.9,10.2,10.2,0,0,1,1,4.9,26.5,26.5,0,0,1-2.5,10.5,19,19,0,0,1-8.2,9.3q-17.1,24.3-21.8,50.7a39.6,39.6,0,0,0-.7,6c0,4.5,1.4,6.8,4.1,6.8s7.6-3,12.6-9c1.8-2.1,4.4-5.7,7.8-10.7s7-10.9,10.8-17.2,7.2-12.7,10.3-19a92.6,92.6,0,0,0,6.2-16,7,7,0,0,1,3.1-5,9.8,9.8,0,0,1,4.9-1.6,6.8,6.8,0,0,1,3.8,1.1,4.4,4.4,0,0,1,1.6,3.8c0,2.1-.2,4.3-.4,6.6a52.4,52.4,0,0,1-1.3,7.4,366,366,0,0,1-10.2,37.6c-1.1,3.2-2.3,6.5-3.4,9.8s-2.3,6.6-3.6,9.8c-2.1,5.5-4.3,10.7-6.4,15.7s-4.1,9.5-5.7,13.3a124,124,0,0,0,10.9-7.6,68.4,68.4,0,0,0,9.2-8.6c1.7-1.8,3.4-3.5,4.8-5.2s2.8-3.3,4.1-5a2.3,2.3,0,0,1,2-1.2c1.9,0,2.9,1.2,2.9,3.4a3.8,3.8,0,0,1-1.2,2.9l-5.4,6.6c-1.7,2.1-3.6,4.2-5.5,6.3a74.2,74.2,0,0,1-11.5,10.4,101.8,101.8,0,0,1-15.7,9.4c-3.7,7.8-7.9,16.1-12.7,25A197.8,197.8,0,0,1,653.2,256a89,89,0,0,1-19.5,19.7A38.4,38.4,0,0,1,610.6,283.4Zm1-8c2.5,0,6.7-2.5,12.3-7.5a95.1,95.1,0,0,0,7.9-7.8c2.8-3,5.4-6,7.9-8.8a56.6,56.6,0,0,0,4.8-6.2c2.6-3.9,5.3-8.3,8.1-13.4s5.7-10.7,8.6-16.6a198.5,198.5,0,0,0-18.6,10.6,116,116,0,0,0-17.2,13.4,68.2,68.2,0,0,0-12.5,15,28.8,28.8,0,0,0-4.7,15.5C608.2,273.4,609.3,275.4,611.6,275.4Z" transform="translate(0 -23)" fill="#fff"/><path d="M288.5,453.5c.5-4.8,1.2-9.7,2.2-14.6s2.2-9.7,3.6-14.3c.7-2.1,1.4-4,2-5.7s1.1-3.1,1.5-4.3a116.5,116.5,0,0,1,5.4-13.3c2.3-4.8,4.5-9.4,6.6-13.6.8-1.8,1.6-3.4,2.4-5s1.4-3,1.8-4.2a82.4,82.4,0,0,0,4.3-10.7,34.2,34.2,0,0,0,1.5-9.7,22.3,22.3,0,0,0-.2-3.7,12.3,12.3,0,0,0-1.2-3.7,9.3,9.3,0,0,0-3.8-4.3,12.1,12.1,0,0,0-6-1.5,15.9,15.9,0,0,0-8.1,2.5,76.8,76.8,0,0,0-13.5,10,192.6,192.6,0,0,0-15.5,15.7c-5.3,5.9-10.1,11.7-14.5,17.4q5-11,9.9-23.4c3.3-8.3,6.2-16.5,8.7-24.5a181.1,181.1,0,0,0,5.4-21.4,9.9,9.9,0,0,0,.3-2.4v-2.2c0-4.8-1.4-8.6-4.3-11.3s-6.9-4.2-12.1-4.2c-11,0-21.7,7.5-32.2,22.5A208,208,0,0,0,217.5,349c-4.5,8.9-8.6,17.9-12.4,27.1-1.5,3.7-3.2,8-5,12.8s-3.7,9.8-5.5,14.9-3.7,9.9-5.5,14.5l-4.2,11.6-4.8,13.4q-2.5,7.1-6.6,16.5c-2.3,5.7-4.4,9.9-6.6,12.8s-3.8,4.3-5.1,4.3-2.2-1.9-2.2-5.6a37,37,0,0,1,.2-4.5,56,56,0,0,1,1-5.9,92,92,0,0,1,3-9c1.5-4,3.2-8.3,5.2-12.9s3.8-9,5.5-13,3.1-6.9,4.1-8.9c3.4-7.5,6.9-14.7,10.6-21.5s7.4-13.6,11-20.4,7.4-13.6,11.1-20.5,7.3-14,10.9-21.4a53.5,53.5,0,0,0,1.8-5.6,29.6,29.6,0,0,0,.8-6.5,10.8,10.8,0,0,0-1.2-5.2c-.8-1.5-2.3-2.2-4.6-2.2a7.1,7.1,0,0,0-5.6,2.7,43.1,43.1,0,0,0-3.5,4.7c-1.2,1.6-2.6,3.7-4.3,6.2s-3.6,5.3-5.6,8.2-4.1,6.2-6.3,9.4l-6.3,9.1-2.3,3.2-4.7,6.6c-2.4,3.3-5,6.7-7.6,10.1A232,232,0,0,1,157,392.3l-3.3,3.3a155.2,155.2,0,0,1-21.2,19.3c8.4-1,16.6-4.4,24.6-10.5l2.3-1.9,4.1-3.8c2.1-2.1,4-4.2,5.9-6.4a159,159,0,0,0,11.1-15.1c3.5-5.3,6.9-10.7,10.2-16.3,1.6-2.8,3.3-5.5,5-8.2l4.9-7.9,2.7-4.3c1-1.6,2-3.3,3.1-4.9l2.9-4.6c-2.5,5.6-5.4,11.4-8.6,17.6s-6.3,12.4-9.6,18.5l-8.7,16.7c-5.8,11.3-11.5,22.6-17,33.9a226.4,226.4,0,0,0-12.9,33.2,89.2,89.2,0,0,0-2.1,9.4,48.4,48.4,0,0,0-.7,8.1c0,4.4.7,7.8,2.2,10.4a7.2,7.2,0,0,0,6.6,3.9,18.4,18.4,0,0,0,13.4-5.5,49.3,49.3,0,0,0,9.8-14.3,173.9,173.9,0,0,0,7.6-18.7q1.2-4.1,2.7-8.7c1-3.1,2-6.3,2.9-9.6,2.4-7.3,4.7-14.6,7-21.8s4.2-13.3,5.9-18a235.6,235.6,0,0,1,10.5-25.5c4-8.3,8.9-17.1,14.6-26.4a106.1,106.1,0,0,1,9.6-13,65.6,65.6,0,0,1,10.9-10.4c3.7-2.7,7.1-4,10.1-4s3.2,2.5,3.2,7.7a70.7,70.7,0,0,1-2.1,15.2c-1.4,6.2-3.1,12.5-5.1,19.1s-3.3,11.1-5.3,16.6-3.8,10.8-5.4,15.6l-3.6,9.7-3.1,8.1a6.7,6.7,0,0,1-1.1,2.4c-1.2,2.6-2.6,6.3-4.4,11a112,112,0,0,0-3.9,13.3c-.2,1.2-.4,2.3-.5,3.5s-.2,2.1-.2,3c0,7.9,3.7,11.8,11.1,11.8l.9-.9c0-11.2,4.2-24,12.5-38.3a197.2,197.2,0,0,1,13.2-19.5,179.3,179.3,0,0,1,16.4-18.5,112.2,112.2,0,0,1,10.4-9.7c3.4-2.7,5.8-4,7.3-4s1.8.6,1.8,1.9a.6.6,0,0,1-.1.4,1.3,1.3,0,0,0-.1.6,75.3,75.3,0,0,1-4.3,15.1c-2.2,5.7-4.6,11.8-7.3,18.2-1.4,3.2-3,7-4.8,11.6s-3.5,9.5-5.2,14.7-3.3,10.4-4.6,15.6a131.1,131.1,0,0,0-2.8,14.2,64.3,64.3,0,0,0-.5,9,59.3,59.3,0,0,0,1.9,15,28.2,28.2,0,0,0,6.5,12.5c3,3.4,7.3,5,12.7,5,7.4,0,13-1.8,17-5.6,1.4-1.3,2.1-2.3,2.1-3.1s-.4-1.1-1.4-1.1a6,6,0,0,0-2.8.9h-.2c-2.2,1.8-5.3,2.8-9.3,2.8-7.5,0-12-4.5-13.5-13.4-.1-1.3-.3-2.6-.5-3.9s-.2-2.6-.2-4,0-1.9.1-2.9A26.4,26.4,0,0,1,288.5,453.5ZM127.8,374.1a68.4,68.4,0,0,0-8.2,8.8A39.8,39.8,0,0,0,116,388l2-1.4a62.4,62.4,0,0,0,15.5-16.9A63.1,63.1,0,0,0,127.8,374.1Z" transform="translate(0 -23)" fill="#fff"/><path d="M372.1,419.5l-.9.2a2.3,2.3,0,0,0-.7.7l-2.9,3.6c-1,1.2-2.1,2.5-3.4,3.8a77,77,0,0,1-7.9,8.1,40.7,40.7,0,0,1-6.9,4.9,2.2,2.2,0,0,1-1.4.6c-.5,0-.8-.6-1.1-1.6a14.2,14.2,0,0,1-.1-2.3,28.1,28.1,0,0,1,.1-2.9,23.3,23.3,0,0,1,.6-3.3,57.2,57.2,0,0,1,2.2-8.6c1.2-3.5,2.7-7.2,4.4-11a90.7,90.7,0,0,1,5-9.9c.9-1.7,1.6-3.2,2.2-4.6a12.5,12.5,0,0,0,.8-4.2,2.2,2.2,0,0,0-2.5-2.5,12,12,0,0,0-5.5,1.3,6.6,6.6,0,0,0-3.6,3.3l-4.1,7.2c-1.1,1.9-2.5,4.2-4.4,6.9s-3.8,5.6-5.9,8.4-4,5.4-5.8,7.7l-4.1,5.3c-3.8,4.5-6.7,6.7-8.8,6.7s-2.1-1.1-2.1-3.3.9-6,2.8-10.2,3.4-8.2,5.7-13.2,4.7-10.1,7.2-15.2,4.9-9.6,7.1-13.6a72.9,72.9,0,0,1,5.3-8.4,25.2,25.2,0,0,0,3.7-5.5,10.1,10.1,0,0,0,1.2-4c0-1.2-.5-1.9-1.7-1.9s-4.2,1.5-7.2,4.6a122.2,122.2,0,0,0-12.3,15.9,184.2,184.2,0,0,0-11.3,19.1,180.5,180.5,0,0,0-8.5,19,40.4,40.4,0,0,0-1.1,4.9,36.9,36.9,0,0,0-.4,5.8,16.5,16.5,0,0,0,2,8.3c1.3,2.5,3.8,3.7,7.5,3.7s4.8-1.1,7.5-3.2a54.6,54.6,0,0,0,8.2-7.9,103.7,103.7,0,0,0,7.5-9.5c-2.5,7.3-3.7,13.1-3.7,17.4,0,6.2,2.5,9.3,7.6,9.3a16.9,16.9,0,0,0,7.3-1.9,25.2,25.2,0,0,0,7.4-5.3c2.3-2.3,4.6-4.6,6.6-6.9a15.4,15.4,0,0,0,1.7-1.9c1.3-1.6,2.6-3.2,4-4.7s2.6-3.1,3.7-4.6a2.7,2.7,0,0,0,1.1-2.1C374.2,420.4,373.5,419.5,372.1,419.5Z" transform="translate(0 -23)" fill="#fff"/><path d="M418.6,421.7a1.9,1.9,0,0,0-1.5-.8,1.6,1.6,0,0,0-1.1.5l-.3.2c-.8,1-1.6,1.9-2.3,2.9a18.6,18.6,0,0,1-2.3,2.6l-1,1.1a64.4,64.4,0,0,1-6.9,6,57.5,57.5,0,0,1-7.5,5c.7-2.4,1.3-5,1.8-7.5l1.5-7.8a165.6,165.6,0,0,0,1.6-20.9c0-1.4,0-2.7-.1-3.9s-.1-2.3-.3-3.3l6.7-5.9a23.2,23.2,0,0,1,4.6-3.3l.5-.7a5.1,5.1,0,0,0,.2-1.6,4.6,4.6,0,0,0-1.8-3.7,6.8,6.8,0,0,0-4.7-1.5c-5.5,0-9.2,4.9-10.9,14.7l-4.2,4.3c-2.6,2.6-5.1,5.1-7.3,7.5s-4.5,5-6.5,7.4l-5.6,6.7-7,8.5a7.7,7.7,0,0,0-2.3,5.1c0,1.4.5,2.1,1.4,2.1h.4a4.7,4.7,0,0,0,1.9-1.7l15.8-17.9c4.4-5,8.8-9.8,13.4-14.5-.5,3.7-1.2,7.9-2.3,12.6s-2.2,9.3-3.5,13.7a87.8,87.8,0,0,1-3.9,10.9l-3.2,6.6-6.1,1.7-6.2,1.5c-4.1,1-8.1,2-12,3.2a49.3,49.3,0,0,0-11,4.7,17,17,0,0,0-5.9,5.2,11,11,0,0,0-1.9,5.7c0,2.9,1.4,5.3,4,7.3s6.3,2.9,11,2.6c18.9-1.3,32.1-11.6,39.8-31a87.2,87.2,0,0,0,17.2-11.8l.7-.7a55.6,55.6,0,0,0,7.2-8.6,1.6,1.6,0,0,0,.5-1.4A2.9,2.9,0,0,0,418.6,421.7Zm-52.8,43.2a39.7,39.7,0,0,1-11.8,5.7,22.7,22.7,0,0,1-4.1.5c-3.5,0-5.3-1.2-5.3-3.5a6.3,6.3,0,0,1,1.3-3.3,10.7,10.7,0,0,1,4-3.4,56.3,56.3,0,0,1,15-5.8l6.6-1.7,6.6-1.7Q372.1,460.7,365.8,464.9Z" transform="translate(0 -23)" fill="#fff"/><path d="M482.9,419a2.1,2.1,0,0,0-1.6.9l-1.7,1.9-1.8,2.1-3.5,4.1-13,15.1a80.2,80.2,0,0,1-5.6,5.9c-2.6,2.6-5.6,5.4-8.9,8.2a79.6,79.6,0,0,1-10.2,7.2q-5.2,3-9.3,3-7.5,0-7.5-12a8.1,8.1,0,0,1,.1-1.6v-1.5a71.1,71.1,0,0,1,1.4-7.7,72.2,72.2,0,0,1,2.3-8.3,26.6,26.6,0,0,1,2.5-5.9,46.9,46.9,0,0,0,10.8-2.5,80.5,80.5,0,0,0,16.6-8.4c5.2-3.4,8.8-6.9,11-10.6a20.8,20.8,0,0,0,3.1-10.1c0-4.2-1.5-7.2-4.6-9a17.9,17.9,0,0,0-8.6-1.9,27.7,27.7,0,0,0-14,4.1,45,45,0,0,0-13.1,11.7A109.1,109.1,0,0,0,416,421.4l-1.5,3.1a75.7,75.7,0,0,0-3.7,9.6,59.3,59.3,0,0,0-2.3,10.6,64.2,64.2,0,0,0-.5,7.4c0,6.9,1.3,12.3,3.9,16.3a13,13,0,0,0,11.4,5.8c9.7,0,20-5.2,31-15.8a112.6,112.6,0,0,0,7.9-8.5l7.5-9.1,6-7.2,4.2-4.9,3.9-5.1a4.8,4.8,0,0,0,1.1-2.5A1.8,1.8,0,0,0,482.9,419Zm-46.3-5.1a127.9,127.9,0,0,1,9.4-12c3.3-3.6,6.3-6.1,9.1-7.3a7.5,7.5,0,0,1,3-.8c2,0,3,1.3,3,3.7a14.2,14.2,0,0,1-1.9,6.4,22.2,22.2,0,0,1-5.7,6.7,86.2,86.2,0,0,1-6.9,5.2,91.9,91.9,0,0,1-9.3,6,33.7,33.7,0,0,1-8.4,3.7C431,422.1,433.6,418.2,436.6,413.9Z" transform="translate(0 -23)" fill="#fff"/><path d="M469.9,347.5h27l-2,7.4H467.8Z" transform="translate(0 -23)" fill="#fff"/><path d="M536.4,318.5c6.5,0,11.2.9,14,2.8a8.2,8.2,0,0,1,4.1,7.3,11.7,11.7,0,0,1-2.7,7.4,19.2,19.2,0,0,1-7.9,5.5,38.1,38.1,0,0,1-12.8,2.3c6.4-.1,11.3.9,14.8,3.1s5.2,4.8,5.2,8.1a13.5,13.5,0,0,1-1.8,7,14.4,14.4,0,0,1-5.2,5.2,25.6,25.6,0,0,1-8.2,3.3,53.9,53.9,0,0,1-11.1,1H498.3l.3-1.5a17.9,17.9,0,0,0,4-.6,3.9,3.9,0,0,0,2.2-1.8,12,12,0,0,0,1.5-4l9.9-37.2a28.1,28.1,0,0,0,.7-3.7,2.2,2.2,0,0,0-1.1-2c-.7-.5-2.1-.7-4-.8l.4-1.5,3.9.2h20.3Zm-13.7,26.1.3-1.3h5a9.6,9.6,0,0,0,6.6-2.4,15.4,15.4,0,0,0,3.9-6.4,25.6,25.6,0,0,0,1.3-8.2,12.5,12.5,0,0,0-.7-4.5,3.5,3.5,0,0,0-3.5-1.9,2.7,2.7,0,0,0-2.3,1.1,12.8,12.8,0,0,0-1.6,4.3l-10.2,38.3c-.2.8-.3,1.8-.5,2.7a4,4,0,0,0,.4,2.5c.4.7,1.2,1,2.5,1a8.4,8.4,0,0,0,5.9-2.4,16.4,16.4,0,0,0,3.9-6.1,20.8,20.8,0,0,0,1.5-7.8,14.9,14.9,0,0,0-.6-4.3,6.6,6.6,0,0,0-2.3-3.3,6.3,6.3,0,0,0-4.3-1.3Z" transform="translate(0 -23)" fill="#fff"/><path d="M567.8,365.2q-.4,1.8,0,2.4a1.5,1.5,0,0,0,1.2.7,3.1,3.1,0,0,0,1.5-.7c.8-.5,1.5-1.8,2.3-4l1.6-4.2h1.4l-1.8,5.5a12.4,12.4,0,0,1-3,4.8,9.8,9.8,0,0,1-3.9,2.3,13.1,13.1,0,0,1-3.8.6,10,10,0,0,1-4.1-.8,6.8,6.8,0,0,1-2.8-2.5,7.9,7.9,0,0,1-1-4,15.1,15.1,0,0,1,.9-5.6l11.4-38.2c.5-1.7.5-2.9-.1-3.7s-2.1-1.2-4.6-1.2l.5-1.6a70.9,70.9,0,0,0,11-.9,54.9,54.9,0,0,0,9.1-2.2Z" transform="translate(0 -23)" fill="#fff"/><path d="M579.3,359.8a32.4,32.4,0,0,1,4-15,25.3,25.3,0,0,1,5.1-6.7,23.6,23.6,0,0,1,7.4-4.8,26.1,26.1,0,0,1,9.6-1.7c4.3,0,7.7,1.1,9.9,3.3s3.4,5.3,3.4,9.4a32.5,32.5,0,0,1-.9,7.4,38.3,38.3,0,0,1-3,7.7,30.2,30.2,0,0,1-5.2,6.7,21.3,21.3,0,0,1-7.3,4.7,24.7,24.7,0,0,1-9.7,1.8q-6.5,0-9.9-3.3C580.4,367.1,579.3,363.9,579.3,359.8ZM605,333.1q-1.2,0-3,2.1a33.8,33.8,0,0,0-3.5,5.7,61.9,61.9,0,0,0-3.3,8.1,54.4,54.4,0,0,0-2.5,9,47.6,47.6,0,0,0-1,8.9,12.2,12.2,0,0,0,.4,3.3,1.1,1.1,0,0,0,1.1.9c.8,0,1.7-.7,2.9-2a35.7,35.7,0,0,0,3.4-5.5,57.2,57.2,0,0,0,3.3-7.8,63.9,63.9,0,0,0,2.5-9.1,43.3,43.3,0,0,0,1-9.3,9,9,0,0,0-.4-3.6A.9.9,0,0,0,605,333.1Z" transform="translate(0 -23)" fill="#fff"/><path d="M637.7,354.5l4.5-.6L637,356a16.5,16.5,0,0,0-3.1,1.7c-.7.5-1.1,1-1.1,1.5s.3.7.8,1a9,9,0,0,0,1.9.8l6.8,2.6a24.2,24.2,0,0,1,4,1.9,8.9,8.9,0,0,1,3.2,2.9,6.7,6.7,0,0,1,1.3,4.3,8.9,8.9,0,0,1-2.1,5.9,18.1,18.1,0,0,1-5.8,4,35.4,35.4,0,0,1-7.6,2.3,43.7,43.7,0,0,1-7.9.7,33.8,33.8,0,0,1-7.2-.7,16.2,16.2,0,0,1-5.5-2,3.5,3.5,0,0,1-2.1-3,3.1,3.1,0,0,1,1.6-2.7,13.6,13.6,0,0,1,4.2-1.7,29.7,29.7,0,0,1,5.2-.8,25.2,25.2,0,0,1,4.7-.1v1.1a11.2,11.2,0,0,0-3.4,2.7,4.1,4.1,0,0,0-1,2.6,2.9,2.9,0,0,0,1.3,2.5,6,6,0,0,0,3.6.9,18.9,18.9,0,0,0,3.9-.5,17.4,17.4,0,0,0,3.8-1.4,13,13,0,0,0,2.8-2.2,4.3,4.3,0,0,0,1.1-2.8,2.4,2.4,0,0,0-1.2-2.2,16.9,16.9,0,0,0-3.2-1.1l-10.2-3.3a9.2,9.2,0,0,1-3.3-1.9,3.9,3.9,0,0,1-1.5-3.2,5.7,5.7,0,0,1,2.3-4.3,27.2,27.2,0,0,1,6-3.5Zm4.8-22.9a18.2,18.2,0,0,1,8.8,2,7.1,7.1,0,0,1,3.5,6.6,12.4,12.4,0,0,1-2.4,7.1,17.9,17.9,0,0,1-6.9,5.7,23.3,23.3,0,0,1-10.6,2.3,16.5,16.5,0,0,1-8.7-2.1,6.8,6.8,0,0,1-3.6-6.5,11.3,11.3,0,0,1,1.4-5.3,16.2,16.2,0,0,1,3.9-4.9,18.4,18.4,0,0,1,6.3-3.5A23.7,23.7,0,0,1,642.5,331.6Zm-1.9,1.4a2.4,2.4,0,0,0-1.6.9,8.3,8.3,0,0,0-1.5,2.4,25.3,25.3,0,0,0-1.2,3.6,29.2,29.2,0,0,0-.8,4.6,41.2,41.2,0,0,0-.3,5.1,12.4,12.4,0,0,0,.3,3.4,1.1,1.1,0,0,0,1.1.9,2.5,2.5,0,0,0,2.1-1.4,11.6,11.6,0,0,0,1.8-3.7,21.4,21.4,0,0,0,1.2-5.4,42.1,42.1,0,0,0,.4-6.2,13.2,13.2,0,0,0-.2-2.9C641.7,333.4,641.3,333,640.6,333Zm8.2,2.6-1.6-.5A11.5,11.5,0,0,1,651,330a9.2,9.2,0,0,1,5.5-1.9,5.3,5.3,0,0,1,3.9,1.4,5.6,5.6,0,0,1,1.2,3.6,4.4,4.4,0,0,1-1.1,3.3,3.3,3.3,0,0,1-2.5,1.2,3.5,3.5,0,0,1-2.3-.9,5.3,5.3,0,0,1-1.4-3,9.7,9.7,0,0,1,.9-4.9l.3.5a13,13,0,0,0-4.1,2.4A12.6,12.6,0,0,0,648.8,335.6Z" transform="translate(0 -23)" fill="#fff"/><path d="M663.1,347.5h27.1l-2,7.4H661.1Z" transform="translate(0 -23)" fill="#fff"/><path d="M188.7,355.4c-8.4,16-17.9,32.5-29.3,47.1-15.7,20.1-35.2,36.8-60.5,44-39,11.5-76.3-4.1-91-43-11.2-29.2-10.1-65.8.6-95,4.1-10.6,9.8-20.8,17.6-29.3,18.8-21.1,51.6-32.3,78.6-20C137.6,275,151,317,141.8,350.9a71.8,71.8,0,0,1-8.3,18.8A62.4,62.4,0,0,1,118,386.6l-2,1.4c-30.5,20.7-73,11.4-82.8-27-5.4-20.9,4.2-42.5,25.1-49.7,9.7-3.4,21.4-2.5,29.7,3.8,12.3,9.2,16.4,28.8,5.4,40.2-8.9,8.5-24.3,8-32.3-1.1a16.1,16.1,0,0,1-3.1-6.1l1.5-.5a17,17,0,0,0,3.5,4.8c7,6.1,19.6,5.4,25.3-1.7s1.9-21.9-6.4-26.9a18,18,0,0,0-9.3-2.7,25.8,25.8,0,0,0-18.3,7.7c-12.8,12.4-7.8,34.8,5,45.4,16.8,13.8,43,7,56.6-8.6,23.3-27.6,15.3-76.3-15.1-95.5-15.1-9.3-35.1-8.5-50.9-1.1C10.3,286.7.6,337.5,10,376.1c7.4,31.4,27.7,58.5,62.2,59.8,22.5.9,42.9-7.8,60.3-21h0a155.2,155.2,0,0,0,21.2-19.3l1.6-1.8c10.5-11.4,20-24,29.8-36.5.7-.9,1.5-1.8,2.2-2.8Z" transform="translate(0 -23)" fill="#fff"/></g></g></svg>