<svg xmlns="http://www.w3.org/2000/svg" width="476" height="613.8" viewBox="0 0 476 613.8"><g id="Layer_2" data-name="Layer 2"><g id="Layer_6" data-name="Layer 6"><path d="M352.9,125.4A255.6,255.6,0,0,1,342.3,178,264.3,264.3,0,0,1,313,240.8l-3.5-4.5c24.8-8.9,61.2-22.3,85.8-30.9l9.5-3.4c-2.9,5.9-15.7,31.1-18.9,37.5-12.8,25.2-30.4,59.7-43.4,84.8l-4.4-6.4a163.7,163.7,0,0,0,83.7-35.2l9.9-8.1c-3.7,12.2-7.6,25.5-11.4,37.6-7.2,23.7-16.2,52.7-23.6,76.3l-3.1-2.9c25.8-8.2,56.5-17.8,82.4-25.6-25.3,9.7-55.5,20.8-80.8,30.1l-4.3,1.5,1.2-4.4c9.1-33.3,19.1-69.5,28.4-102.6l6.3,4.1a166.9,166.9,0,0,1-87.7,38l-8.3,1,3.8-7.4c18.1-35.5,39.9-77.6,58.4-112.9l4.9,5.7c-24.5,8.3-61.5,20.7-86.4,28.9l-8.6,2.8a283.2,283.2,0,0,0,50-119.4Z" fill="#960007"/><path d="M136.6,190.6c-16.6,7.9-25.9,28.9-19.5,46.1a37.9,37.9,0,0,0,29.3,24.1c17.9,2.5,34.5-9.6,43.5-24.3,7-11.5,10-24.8,11.4-38.2.9-9.1,1.1-18.3,1.3-27.5h7.7a379.3,379.3,0,0,1-2.3,68.2A367.5,367.5,0,0,1,156.8,383c-5.7,9.3-11.6,18.6-14.4,29.1s-1.1,26.4,9.9,33c14.6,8.2,34.2-1.4,43.8-13.5,18.3-23,20.8-58.4,48.7-73.5,17.8-10.3,37.5-3.1,42,17.5,3.9,17.5-6.1,33.7-15.3,47.6,2.8-4.9,5.6-9.8,8-14.9,4.6-9.9,7.7-21.3,4.7-32.1a27.3,27.3,0,0,0-8-13.6c-8.3-7.5-20.2-6.1-29.1-.5-20,11.8-25.2,35.1-34.5,55-3.6,7.8-8,15.8-13.9,22.3-10.4,11.1-25.7,18.7-41.3,16-21-4.1-28.1-26.8-23.2-45.5,2.9-11.5,9.2-21.6,15.2-31.5a371.8,371.8,0,0,0,50.1-140.6,371.8,371.8,0,0,0,3.1-66.7h7.7c-1,23.3-2.2,48.5-15.2,68.8-10.5,16.1-29.5,28.9-49.4,25.4a41.5,41.5,0,0,1-31.3-27.6c-5.9-18.4,4.6-39.8,22.2-47Z" fill="#960007"/><path d="M70.7,34.3c19.4,14.9,32.7,37.1,38.1,60.8,3.8,17.8,5.8,43.3-10.3,55.8-3.4,2.7-7.8,3.9-12.2,4.3l-1.5-1.8C73.2,140,71,119.5,79.7,104.1c10.9-18.9,32.7-26.9,52.6-32.5-16.6,8.4-35,16.6-44.8,33-8,13.3-6.2,31.4,4,42.9L87.6,146c7-.9,11-7.6,13-13.9s2.4-12.8,2.3-19.3a123.8,123.8,0,0,0-2.4-20.2A125.1,125.1,0,0,0,70.7,34.3Z" fill="#960007"/><path d="M190.4,0c-6,14.4.5,33.5,14.3,40.4s31.1,1.5,38.4-10.8l7.4,4c-5.6,12.2-11.5,24.5-11.2,38,.2,11.8,7,25,19.6,26.9,9,1.5,19.1-2.7,26.1-8.7,12.9-11.6,17.2-29.5,21.9-45.7a169.2,169.2,0,0,1-3.2,21c-3.1,14-10.3,28.7-23.4,36.1-24.9,14.5-48.8-1.7-50-29.3-.5-15.2,6.1-29,12.6-42l7.4,4.1c-5,7.9-13.3,13.2-22.3,15.3-13.3,3.2-28-1.4-35.8-13S183.5,10.9,190.4,0Z" fill="#960007"/><path d="M326,380.9c-14.6,25.3-24.7,56.7-14.1,85.2,12.3,31.3,45.9,45.8,64.5,72.9,6.5,9.1,11.3,20.1,11.9,31.4.7,17.5-8.8,36.6-26.4,42.1s-36-8.6-41.2-26,1.3-34.8,12-47.7c20.5-25.4,53.8-34.7,74.6-58.5,10.1-11.7,17.1-27.3,14.2-42.9,3,10.3,1.2,21.5-3.2,31.2-8.7,20-27.3,33.1-44.7,44.9s-38.5,27-45.2,49.5a34.7,34.7,0,0,0,.4,20.9c2.9,8.6,9.1,16.9,17.8,19.9,19.3,6.4,34-15.6,33-33-2.7-31.6-33.7-50.3-53.5-71.8-12.6-13.3-21.4-28.5-22.8-47-2.2-25.5,8.2-50.7,22.7-71.1Z" fill="#960007"/><path d="M0,507.7c8.9-17.5,19.2-35.7,36.3-46.5,32-19.8,63-3.4,73.1,31.1,4.2,14.8,4.1,30,3.6,45-.3,8.9-.5,19.4-6,27.2a20.3,20.3,0,0,1-20.6,8.8c-7-1.4-11.7-8.3-11.6-15.2s3-12,7.1-16.2,8-6.6,12.2-9.6c12.4-8.7,25.6-16.2,40.2-20.8s31.1-5.3,45.6.3,27.7,16.6,31.9,31.7-1.8,31.9-14.2,40.9a28.9,28.9,0,0,1-13.7,5.3,29.6,29.6,0,0,0,12.9-6.4c10.7-9.1,15.6-25.4,10.8-38.4-6.2-18-25.3-28.2-43.4-29.7a68,68,0,0,0-7.8-.1l-6.1.7c-14,2-27.1,8.1-39.2,15.6-7.8,5.1-16.1,10.2-22.8,16.6a18.4,18.4,0,0,0-3.4,4.8c-2,4.1-1.7,10.6,3.5,11.8,3.2.7,7.1-.8,9.6-3.1,6.2-6.4,5.8-15.7,6.3-24.5.2-4.9.3-9.7.4-14.5.1-14.2-1.2-28.4-7.9-41-8.9-17.5-25.7-26.8-45.2-21.7-24.1,6-39,28-51.6,47.9Z" fill="#960007"/></g></g></svg>